<svg width="504" height="691" viewBox="0 0 504 691" fill="none" xmlns="http://www.w3.org/2000/svg">
<path d="M130 24C92 3.99998 120 48 103.5 117.5C91.5 135.5 46.0001 189.2 54.0001 218C62.0001 246.8 120 279.333 148 292C166.667 272 198.4 233.6 176 240C153.6 246.4 120 186 120 160C136.667 120 180.059 50.3466 130 24Z" fill="url(#paint0_linear_11_31)"/>
<path d="M209 308.044L238 450" stroke="white" stroke-width="10" stroke-linecap="round"/>
<path d="M238 450L226 643.222" stroke="white" stroke-width="10" stroke-linecap="round"/>
<path d="M273 292L304 440" stroke="white" stroke-width="10" stroke-linecap="round"/>
<path d="M358 258C358 317.647 333.111 352 258 352C182.889 352 100 317.647 100 258C100 198.353 160.889 150 236 150C311.111 150 358 198.353 358 258Z" fill="white"/>
<rect x="10" y="75.5336" width="67" height="34" transform="rotate(-35.1086 10 75.5336)" fill="white"/>
<ellipse cx="87.5" cy="42" rx="44.5" ry="42" fill="white"/>
<mask id="mask0_11_31" style="mask-type:alpha" maskUnits="userSpaceOnUse" x="43" y="0" width="89" height="84">
<ellipse cx="87.5" cy="42" rx="44.5" ry="42" fill="#E091A3"/>
</mask>
<g mask="url(#mask0_11_31)">
<path d="M56 61C40.8 53.8 36 24 32 14C38 36.6667 53.6 81.6 68 80C86 78 96 53 93 53C90 53 75 70 56 61Z" fill="white"/>
</g>
<path d="M222.911 626.564C231.926 627.016 234.739 638.976 226.871 643.399L174.653 672.747C169.431 675.682 162.854 672.792 161.482 666.962L153.875 634.618C152.504 628.787 157.104 623.269 163.086 623.568L222.911 626.564Z" fill="white"/>
<path d="M298.83 604.764C309.312 607.118 307.601 622.545 296.858 622.545L243.205 622.545C236.861 622.545 232.509 616.158 234.828 610.254L239.178 599.181C240.802 595.049 245.196 592.718 249.527 593.691L298.83 604.764Z" fill="white"/>
<path d="M304 431V622" stroke="white" stroke-width="10" stroke-linecap="round"/>
<path d="M460 356L358 284L266 189L318 172L460 356Z" fill="white"/>
<path d="M364.999 288.094L281.999 300L185.846 260.703C181.785 259.043 182.972 253 187.36 253L281.999 253L364.999 288.094Z" fill="white"/>
<path d="M352 246L269 180L302 172L352 246Z" fill="white"/>
<path d="M15.02 126.48C13.3617 128.864 9.62123 127.736 9.55779 124.832L8.5901 80.5434C8.53974 78.2382 11.0004 76.7403 13.025 77.8437L36.0627 90.3991C37.6307 91.2537 38.1096 93.2802 37.09 94.7462L15.02 126.48Z" fill="white"/>
<defs>
<linearGradient id="paint0_linear_11_31" x1="77.7672" y1="-8.40711" x2="77.7672" y2="292" gradientUnits="userSpaceOnUse">
<stop stop-color="white"/>
<stop offset="1" stop-color="#FDFDFD"/>
</linearGradient>
</defs>
</svg>
